<?xml version="1.0" standalone="no"?><svg xmlns="http://www.w3.org/2000/svg" viewBox="0 0 1440 320"><path fill="#F05454" fill-opacity="1" d="M0,192L40,197.3C80,203,160,213,240,213.3C320,213,400,203,480,176C560,149,640,107,720,112C800,117,880,171,960,181.3C1040,192,1120,160,1200,144C1280,128,1360,128,1400,128L1440,128L1440,320L1400,320C1360,320,1280,320,1200,320C1120,320,1040,320,960,320C880,320,800,320,720,320C640,320,560,320,480,320C400,320,320,320,240,320C160,320,80,320,40,320L0,320Z"></path></svg>